<svg width="32" height="32" viewBox="0 0 32 32" fill="none" xmlns="http://www.w3.org/2000/svg">
<path d="M9.33337 18.6667C9.33337 16.7811 9.33337 15.8383 9.91916 15.2525C10.5049 14.6667 11.4478 14.6667 13.3334 14.6667H18.6667C20.5523 14.6667 21.4951 14.6667 22.0809 15.2525C22.6667 15.8383 22.6667 16.7811 22.6667 18.6667V21.3334C22.6667 23.8257 22.6667 25.0719 22.1308 26.0001C21.7797 26.6082 21.2748 27.1131 20.6667 27.4642C19.7385 28.0001 18.4923 28.0001 16 28.0001V28.0001C13.5077 28.0001 12.2616 28.0001 11.3334 27.4642C10.7253 27.1131 10.2203 26.6082 9.86927 26.0001C9.33337 25.0719 9.33337 23.8257 9.33337 21.3334V18.6667Z" stroke="white" stroke-width="2"/>
<path d="M12 12C12 10.1144 12 9.17157 12.5858 8.58579C13.1716 8 14.1144 8 16 8V8C17.8856 8 18.8284 8 19.4142 8.58579C20 9.17157 20 10.1144 20 12V14.6667H12V12Z" stroke="white" stroke-width="2"/>
<path d="M16 14.6667V20.0001" stroke="white" stroke-width="2"/>
<path d="M20 4L17.3333 8" stroke="white" stroke-width="2"/>
<path d="M12 4L14.6667 8" stroke="white" stroke-width="2"/>
<path d="M9.33337 21.3333H2.66671" stroke="white" stroke-width="2"/>
<path d="M29.3334 21.3333H22.6667" stroke="white" stroke-width="2"/>
<path d="M26.6666 12V13.3333C26.6666 14.2633 26.6666 14.7283 26.5644 15.1098C26.287 16.1451 25.4784 16.9537 24.4431 17.2311C24.0616 17.3333 23.5966 17.3333 22.6666 17.3333V17.3333" stroke="white" stroke-width="2"/>
<path d="M26.6666 29.3333V29.3333C26.6666 28.4033 26.6666 27.9383 26.5644 27.5568C26.287 26.5215 25.4784 25.7129 24.4431 25.4355C24.0616 25.3333 23.5966 25.3333 22.6666 25.3333V25.3333" stroke="white" stroke-width="2"/>
<path d="M5.33337 12V13.3333C5.33337 14.2633 5.33337 14.7283 5.4356 15.1098C5.713 16.1451 6.52164 16.9537 7.55692 17.2311C7.93842 17.3333 8.4034 17.3333 9.33337 17.3333V17.3333" stroke="white" stroke-width="2"/>
<path d="M5.33337 29.3333V29.3333C5.33337 28.4033 5.33337 27.9383 5.4356 27.5568C5.713 26.5215 6.52164 25.7129 7.55692 25.4355C7.93842 25.3333 8.4034 25.3333 9.33337 25.3333V25.3333" stroke="white" stroke-width="2"/>
</svg>
