<svg width="32" height="32" viewBox="0 0 32 32" fill="none" xmlns="http://www.w3.org/2000/svg">
<path d="M25.7679 7.70354C26.6667 9.04874 26.6667 10.9214 26.6667 14.6666C26.6667 18.4118 26.6667 20.2844 25.7679 21.6296C25.3788 22.212 24.8788 22.712 24.2964 23.1011C23.1213 23.8863 21.5436 23.9856 18.6667 23.9981V23.9999L17.1926 26.9481C16.7012 27.9308 15.2988 27.9308 14.8075 26.9481L13.3334 23.9999V23.9981C10.4564 23.9856 8.8788 23.8863 7.70367 23.1011C7.12132 22.712 6.62131 22.212 6.2322 21.6296C5.33337 20.2844 5.33337 18.4118 5.33337 14.6666C5.33337 10.9214 5.33337 9.04874 6.2322 7.70354C6.62131 7.1212 7.12132 6.62119 7.70367 6.23208C9.04886 5.33325 10.9215 5.33325 14.6667 5.33325H17.3334C21.0786 5.33325 22.9512 5.33325 24.2964 6.23208C24.8788 6.62119 25.3788 7.1212 25.7679 7.70354Z" stroke="white" stroke-width="2" stroke-linecap="round" stroke-linejoin="round"/>
<path d="M12 12L20 12" stroke="white" stroke-width="2" stroke-linecap="round" stroke-linejoin="round"/>
<path d="M12 17.3333H16" stroke="white" stroke-width="2" stroke-linecap="round" stroke-linejoin="round"/>
</svg>
