<svg width="32" height="32" viewBox="0 0 32 32" fill="none" xmlns="http://www.w3.org/2000/svg">
<path d="M12 28H20" stroke="white" stroke-width="2" stroke-linecap="round"/>
<path d="M16 27.9999V21.3333" stroke="white" stroke-width="2" stroke-linecap="round"/>
<mask id="path-3-inside-1_581_405" fill="white">
<path d="M6.66663 12.381C6.66663 11.7128 6.66663 11.3787 6.8199 11.1347C6.89983 11.0075 7.00739 10.9 7.13459 10.82C7.37853 10.6667 7.71266 10.6667 8.38091 10.6667H23.619C24.2873 10.6667 24.6214 10.6667 24.8653 10.82C24.9925 10.9 25.1001 11.0075 25.18 11.1347C25.3333 11.3787 25.3333 11.7128 25.3333 12.381V13.3334C25.3333 16.4424 25.3333 17.9969 24.7711 19.2025C24.175 20.4809 23.1475 21.5084 21.869 22.1046C20.6635 22.6667 19.109 22.6667 16 22.6667C12.891 22.6667 11.3365 22.6667 10.1309 22.1046C8.85246 21.5084 7.82493 20.4809 7.22878 19.2025C6.66663 17.9969 6.66663 16.4424 6.66663 13.3334V12.381Z"/>
</mask>
<path d="M6.66663 12.381C6.66663 11.7128 6.66663 11.3787 6.8199 11.1347C6.89983 11.0075 7.00739 10.9 7.13459 10.82C7.37853 10.6667 7.71266 10.6667 8.38091 10.6667H23.619C24.2873 10.6667 24.6214 10.6667 24.8653 10.82C24.9925 10.9 25.1001 11.0075 25.18 11.1347C25.3333 11.3787 25.3333 11.7128 25.3333 12.381V13.3334C25.3333 16.4424 25.3333 17.9969 24.7711 19.2025C24.175 20.4809 23.1475 21.5084 21.869 22.1046C20.6635 22.6667 19.109 22.6667 16 22.6667C12.891 22.6667 11.3365 22.6667 10.1309 22.1046C8.85246 21.5084 7.82493 20.4809 7.22878 19.2025C6.66663 17.9969 6.66663 16.4424 6.66663 13.3334V12.381Z" stroke="white" stroke-width="4" stroke-linecap="round" mask="url(#path-3-inside-1_581_405)"/>
<path d="M15.0385 15.7253C14.8868 16.2563 15.1942 16.8098 15.7253 16.9615C16.2563 17.1132 16.8098 16.8058 16.9615 16.2747L15.0385 15.7253ZM18.3972 7.60987L19.3587 7.88459V7.88459L18.3972 7.60987ZM19.5774 6.30235L19.9488 7.23083L19.5774 6.30235ZM18.7511 6.74292L18.0088 6.07286L18.0088 6.07286L18.7511 6.74292ZM16.9615 16.2747L19.3587 7.88459L17.4357 7.33514L15.0385 15.7253L16.9615 16.2747ZM19.9488 7.23083L25.7047 4.92848L24.9619 3.07152L19.2061 5.37388L19.9488 7.23083ZM19.3587 7.88459C19.4295 7.63669 19.4661 7.51181 19.4995 7.42452C19.526 7.35521 19.5266 7.37631 19.4934 7.41299L18.0088 6.07286C17.6614 6.45775 17.541 6.96649 17.4357 7.33514L19.3587 7.88459ZM19.2061 5.37388C18.8501 5.51627 18.3563 5.68797 18.0088 6.07286L19.4934 7.41299C19.4603 7.44967 19.4393 7.45128 19.5055 7.41783C19.589 7.37572 19.7095 7.32658 19.9488 7.23083L19.2061 5.37388Z" fill="white"/>
</svg>
